<?xml version="1.0" encoding="UTF-8" standalone="no"?>
<!DOCTYPE svg PUBLIC "-//W3C//DTD SVG 1.1//EN"
 "http://www.w3.org/Graphics/SVG/1.1/DTD/svg11.dtd">
<!-- Generated by graphviz version 2.40.1 (20161225.0304)
 -->
<!-- Title: dependencies Pages: 1 -->
<svg width="504pt" height="211pt"
 viewBox="0.00 0.00 504.00 211.00" xmlns="http://www.w3.org/2000/svg" xmlns:xlink="http://www.w3.org/1999/xlink">
<g id="graph0" class="graph" transform="scale(1 1) rotate(0) translate(4 207)">
<title>dependencies</title>
<polygon fill="#ffffff" stroke="transparent" points="-4,4 -4,-207 500,-207 500,4 -4,4"/>
<text text-anchor="start" x="227.0091" y="-42.4" font-family="sans-serif" font-weight="bold" font-size="14.00" fill="#000000">Legend</text>
<polygon fill="#ffffb3" stroke="transparent" points="14,-10 14,-30 34,-30 34,-10 14,-10"/>
<text text-anchor="start" x="37.629" y="-15.4" font-family="sans-serif" font-size="14.00" fill="#000000"> &#160;Declarations</text>
<polygon fill="#8dd3c7" stroke="transparent" points="127,-10 127,-30 147,-30 147,-10 127,-10"/>
<text text-anchor="start" x="150.7251" y="-15.4" font-family="sans-serif" font-size="14.00" fill="#000000"> &#160;Module</text>
<polygon fill="#80b1d3" stroke="transparent" points="213,-10 213,-30 233,-30 233,-10 213,-10"/>
<text text-anchor="start" x="236.7812" y="-15.4" font-family="sans-serif" font-size="14.00" fill="#000000"> &#160;Bootstrap</text>
<polygon fill="#fdb462" stroke="transparent" points="310,-10 310,-30 330,-30 330,-10 310,-10"/>
<text text-anchor="start" x="333.6732" y="-15.4" font-family="sans-serif" font-size="14.00" fill="#000000"> &#160;Providers</text>
<polygon fill="#fb8072" stroke="transparent" points="406,-10 406,-30 426,-30 426,-10 406,-10"/>
<text text-anchor="start" x="429.7258" y="-15.4" font-family="sans-serif" font-size="14.00" fill="#000000"> &#160;Exports</text>
<g id="clust1" class="cluster">
<title>cluster_TickTockModule</title>
<polygon fill="none" stroke="#000000" stroke-dasharray="1,5" points="162,-70 162,-195 334,-195 334,-70 162,-70"/>
</g>
<g id="clust4" class="cluster">
<title>cluster_TickTockModule_exports</title>
<polygon fill="none" stroke="#000000" points="170,-135 170,-187 326,-187 326,-135 170,-135"/>
</g>
<!-- TickTockComponent  -->
<g id="node1" class="node">
<title>TickTockComponent </title>
<polygon fill="#fb8072" stroke="#000000" points="317.7576,-179 178.2424,-179 178.2424,-143 317.7576,-143 317.7576,-179"/>
<text text-anchor="middle" x="248" y="-156.8" font-family="Times,serif" font-size="14.00" fill="#000000">TickTockComponent </text>
</g>
<!-- TickTockModule -->
<g id="node2" class="node">
<title>TickTockModule</title>
<polygon fill="#8dd3c7" stroke="#000000" points="304.9748,-114 301.9748,-118 280.9748,-118 277.9748,-114 191.0252,-114 191.0252,-78 304.9748,-78 304.9748,-114"/>
<text text-anchor="middle" x="248" y="-91.8" font-family="Times,serif" font-size="14.00" fill="#000000">TickTockModule</text>
</g>
<!-- TickTockModule&#45;&gt;TickTockComponent  -->
<g id="edge1" class="edge">
<title>TickTockModule&#45;&gt;TickTockComponent </title>
<path fill="none" stroke="#000000" stroke-dasharray="5,2" d="M229.0042,-114.1061C229.0042,-114.1061 229.0042,-132.991 229.0042,-132.991"/>
<polygon fill="#000000" stroke="#000000" points="225.5043,-132.9909 229.0042,-142.991 232.5043,-132.991 225.5043,-132.9909"/>
</g>
<!-- TickTockModule&#45;&gt;TickTockComponent  -->
<g id="edge2" class="edge">
<title>TickTockModule&#45;&gt;TickTockComponent </title>
<path fill="none" stroke="#000000" stroke-dasharray="5,2" d="M266.9958,-114.1061C266.9958,-114.1061 266.9958,-132.991 266.9958,-132.991"/>
<polygon fill="#000000" stroke="#000000" points="263.4959,-132.9909 266.9958,-142.991 270.4959,-132.991 263.4959,-132.9909"/>
</g>
</g>
</svg>
